<svg width="140" height="35" viewBox="0 0 140 35" fill="none" xmlns="http://www.w3.org/2000/svg">
<g clip-path="url(#clip0)">
<path d="M100.085 6.44528H93.89C93.7561 6.44522 93.6236 6.47205 93.5002 6.52417C93.3769 6.57629 93.2653 6.65264 93.1721 6.7487C93.0788 6.84476 93.0058 6.95856 92.9573 7.08337C92.9089 7.20818 92.886 7.34146 92.89 7.47528V27.0603H97.25V20.0603H100.105C104.325 20.0603 108.15 17.4153 108.15 12.9353C108.15 8.45529 104.325 6.43529 100.105 6.43529L100.085 6.44528ZM97.25 17.9353V8.55028H100.105C100.691 8.54368 101.273 8.65308 101.818 8.87219C102.362 9.09131 102.857 9.41581 103.275 9.82704C103.693 10.2383 104.026 10.7281 104.254 11.2684C104.483 11.8087 104.602 12.3888 104.605 12.9753C104.605 15.7703 102.245 17.9453 100.105 17.9453H97.25V17.9353ZM115.58 11.6253C112.275 11.6253 110.58 12.4403 110.58 12.4403L110.98 13.6703C112.156 13.2348 113.407 13.0377 114.66 13.0903C117.365 13.0903 117.915 14.4103 117.915 16.2103L117.88 17.0153C116.794 16.7467 115.679 16.6124 114.56 16.6153C112.495 16.6153 109.085 17.8953 109.085 22.0653C109.085 26.0353 112.085 27.3303 114.22 27.3303C115.533 27.3536 116.823 26.9751 117.915 26.2453V27.0603H122.275V16.2103C122.275 12.7803 118.875 11.6253 115.575 11.6253H115.58ZM115.76 25.3953C113.865 25.3953 112.505 23.9903 112.505 21.9203C112.505 19.8503 114.32 18.6303 115.98 18.6303C116.66 18.5996 117.335 18.7738 117.915 19.1303V24.4403C117.351 25.0309 116.577 25.3757 115.76 25.4003V25.3953ZM132.46 28.9353C131.135 31.8753 128.96 32.2603 127.96 32.3703C127.256 32.4432 126.547 32.4666 125.84 32.4403V30.0403C127.785 30.0403 128.84 30.1903 129.985 27.9103L130.765 25.9103L123.605 11.6103H128.18L132.87 21.1103L137.02 11.6103H140.02C140.02 11.6103 133.79 25.9803 132.465 28.9153L132.46 28.9353ZM50.235 6.41528H44.02C43.8861 6.41522 43.7536 6.44205 43.6302 6.49417C43.5069 6.54629 43.3953 6.62264 43.3021 6.7187C43.2088 6.81476 43.1358 6.92857 43.0873 7.05338C43.0389 7.17818 43.016 7.31146 43.02 7.44528V27.0303H47.38V20.0303H50.235C54.455 20.0303 58.28 17.3853 58.28 12.9053C58.28 8.42527 54.455 6.40527 50.235 6.40527V6.41528ZM47.38 17.9053V8.55028H50.235C50.8215 8.54368 51.4035 8.65308 51.9475 8.87219C52.4916 9.09131 52.9869 9.41581 53.4051 9.82704C53.8233 10.2383 54.1561 10.7281 54.3843 11.2684C54.6126 11.8087 54.7317 12.3888 54.735 12.9753C54.735 15.7703 52.375 17.9453 50.235 17.9453H47.38V17.9053ZM65.71 11.6253C62.405 11.6253 60.71 12.4403 60.71 12.4403L61.11 13.6703C62.286 13.2348 63.537 13.0377 64.79 13.0903C67.495 13.0903 68.045 14.4103 68.045 16.2103L68.01 17.0153C66.9238 16.7467 65.8088 16.6124 64.69 16.6153C62.625 16.6153 59.22 17.8953 59.22 22.0653C59.22 26.0353 62.22 27.3303 64.35 27.3303C65.6634 27.3536 66.9527 26.9751 68.045 26.2453V27.0603H72.405V16.2103C72.405 12.7803 69.005 11.6253 65.705 11.6253H65.71ZM65.89 25.3953C63.995 25.3953 62.635 23.9903 62.635 21.9203C62.635 19.8503 64.45 18.6303 66.135 18.6303C66.8155 18.5996 67.4895 18.7738 68.07 19.1303V24.4403C67.5056 25.0309 66.7315 25.3757 65.915 25.4003L65.89 25.3953ZM82.615 28.9353C81.29 31.8753 79.115 32.2603 78.115 32.3703C77.4108 32.4432 76.7024 32.4666 75.995 32.4403V30.0403C77.94 30.0403 78.995 30.1903 80.14 27.9103L80.92 25.9103L73.76 11.6103H78.33L83.025 21.1103L87.175 11.6103H90.175C90.175 11.6103 83.945 25.9803 82.62 28.9153" fill="#3F3A39"/>
<path d="M29.8599 0C31.2312 0.00395754 32.5452 0.550452 33.5148 1.5201C34.4845 2.48974 35.031 3.80372 35.0349 5.175V29.825C35.031 31.1963 34.4845 32.5103 33.5148 33.4799C32.5452 34.4495 31.2312 34.996 29.8599 35H5.20992C3.83823 34.9974 2.52349 34.4513 1.55356 33.4814C0.58363 32.5114 0.0375551 31.1967 0.0349121 29.825V10.955V4.90001C0.10885 3.57872 0.684724 2.33558 1.64478 1.42477C2.60484 0.513973 3.87656 0.00430743 5.19991 0H29.8499" fill="white"/>
<path d="M6.815 35.0005H5.175C3.80372 34.9965 2.48974 34.45 1.5201 33.4804C0.550452 32.5107 0.00395754 31.1967 0 29.8255V10.9555C4.24513 10.5075 8.52398 10.4774 12.775 10.8655L6.815 35.0005ZM27.865 18.6855C28.685 15.3455 23.295 12.2505 14.665 11.0855L11.53 24.1205C18.765 24.4605 26.985 22.2855 27.865 18.6855ZM29.825 0.000457764H5.175C3.85216 0.00483655 2.58102 0.514667 1.62177 1.42558C0.662514 2.3365 0.0877042 3.57962 0.0149994 4.90047C20.65 4.31547 30.69 11.4955 29.11 18.6555C27.695 25.1005 21.14 27.5705 10.505 28.3655L8.915 34.9805H29.825C31.1963 34.9765 32.5103 34.43 33.4799 33.4604C34.4495 32.4907 34.996 31.1767 35 29.8055V5.15546C34.996 3.78418 34.4495 2.47021 33.4799 1.50056C32.5103 0.53092 31.1963 -0.0155737 29.825 -0.0195312" fill="#FF0033"/>
</g>
<defs>
<clipPath id="clip0">
<rect width="140" height="35" fill="white"/>
</clipPath>
</defs>
</svg>
